/* XPM */
static char *dummy[]={
"136 96 2 1",
"# c #000000",
". c #ffffff",
"........................................................................................................................................",
"........................................................................................................................................",
"...........#....................#.............................#..#..............................................#.......................",
"...........#.....#.#.....#.#...###....##.....###.....#.......#....#.......#....................................#........................",
"...........#.....#.#.....#.#..#...#..#..#...#..#.....#.......#....#.......#....................................#........................",
"...........#.....#.#...######.#.......##..#.#........#......#......#....#####....#............................#.........................",
"...........#............#.#....##.......##...#...#..........#......#......#......#............................#.........................",
"...........#............#.#.....##....##....###.#...........#......#.....#.#...#####.........#####...........#..........................",
"...........#..........######..#...#..#..##.#...#............#......#.............#...........................#..........................",
".......................#.#....#...#....#..##...##...........#......#.............#.....#....................#...........................",
"...........#...........#.#.....###......##..###..#...........#....#....................#.............#......#...........................",
"................................#............................#....#...................#....................#............................",
"..............................................................#..#......................................................................",
"........................................................................................................................................",
"........................................................................................................................................",
"........................................................................................................................................",
"...###.....#.....###....###......#...#####....###..#####...###....###...................................................................",
"..#...#..###....#...#..#...#....##...#.......#.....#...#..#...#..#...#......................................###.........................",
"..#...#....#....#...#......#...#.#...#......#.........#...#...#..#...#...................#...........#.....#...#........................",
"..#...#....#....#...#......#...#.#...#......#.........#...#...#..#...#..................#.............#........#........................",
"..#...#....#.......#.....##...#..#...####...####......#....###...#...#....#......#.....#.....#####.....#......#.........................",
"..#...#....#......#........#.#...#.......#..#...#.....#...#...#...####................#.................#....#..........................",
"..#...#....#.....#.........#.######......#..#...#....#....#...#......#.................#.....#####.....#.....#..........................",
"..#...#....#....#...#..#...#.....#..#....#..#...#....#....#...#.....#............#......#.............#.................................",
"...###...#####..#####...###.....###..####....###.....#.....###...###......#......#.......#...........#.......#..........................",
"................................................................................#.......................................................",
"........................................................................................................................................",
"........................................................................................................................................",
"........................................................................................................................................",
"........................................................................................................................................",
"........................................................................................................................................",
"...###...###...#####....###..#####..######.######...###..###.###.#####...####.###.##.###....##...####..###..###.........................",
"..#...#....#....#...#..#...#..#...#..#...#..#...#..#...#..#...#....#.......#...#..#...#......##.##..##..#..#...#........................",
"..#..##...#.#...#...#..#...#..#...#..#.#....#.#.#..#...#..#...#....#.......#...#.#....#......##.##..##..#..#...#........................",
"..#.#.#...#.#...####...#......#...#..###....###....#......#####....#.......#...##.....#......#.#.#..#.#.#..#...#........................",
"..#.#.#..#####..#...#..#......#...#..#.#....#.#....#..##..#...#....#.......#...###....#......#.#.#..#.#.#..#...#........................",
"..#..###.#...#..#...#..#...#..#...#..#......#......#...#..#...#....#....#..#...#..#...#...#..#.#.#..#..##..#...#........................",
"..#......#...#..#...#..#...#..#...#..#...#..#......#...#..#...#....#....#..#...#...#..#...#..#...#..#..##..#...#........................",
"...###..###.########....###..#####..######.####.....###..###.###.#####...##...###..########.###.######..#...###.........................",
"........................................................................................................................................",
"........................................................................................................................................",
"........................................................................................................................................",
"........................................................................................................................................",
"........................................................................................................................................",
".................................................................................##...#.......##........................................",
".#####....###..#####....####.##########.######.######.######.######.###.#####....#.....#.......#......#.................................",
"..#..##..#...#..#...#..#...#.#..#..#.#...#..#...#..#...#..#...#..#...#..#...#....#.....#.......#.....#.#................................",
"..#...#..#...#..#...#..#.....#..#..#.#...#..#...#..#.#.#...#.#....#.#...#..#.....#......#......#....#...#...............................",
"..#..##..#...#..####...###......#....#...#..##.##..#.#.#....#.....#.#.....#......#......#......#........................................",
"..####...#...#..#..#.....###....#....#...#...#.#...#.#.#...#.#.....#......#......#.......#.....#........................................",
"..#......#...#..#...#......#....#....#...#...#.#...##.##...#.#.....#.....#..#....#.......#.....#........................................",
"..#......#...#..#...#..#...#....#....##.##...###....#.#...#...#....#....#...#....#........#....#........................................",
".####.....###..###..##.####...#####...###.....#.....#.#..###.###..###...#####....#........#....#........................................",
"............##...................................................................#.........#...#........................................",
".................................................................................##...........##........................................",
"..........................................................................................................#######.......................",
"........................................................................................................................................",
"........................................................................................................................................",
"..#............##................##...........###........##........#.......#..##......###...............................................",
"...#............#.................#..........#............#....................#........#...............................................",
"................#.................#..........#............#....................#........#...............................................",
".........####...####....###....####...###...#####...###.#.#.##...###....####...#..##....#...###.#..#.###....###.........................",
".............#..#...#..#...#..#...#..#...#...#.....#...#..##..#....#.......#...#.#......#....#.#.#..##..#..#...#........................",
"..........####..#...#..#......#...#..#####...#.....#...#..#...#....#.......#...##.......#....#.#.#..#...#..#...#........................",
".........#...#..#...#..#......#...#..#.......#.....#...#..#...#....#.......#...#.#......#....#.#.#..#...#..#...#........................",
".........#...#..#...#..#...#..#...#..#...#...#.....#...#..#...#....#.......#...#..#.....#....#.#.#..#...#..#...#........................",
"..........###.##.###....###....###.#..###...####....####.###.###.#####.....#..##...##.########.#.#####..##..###.........................",
".......................................................#...................#............................................................",
".......................................................#...................#............................................................",
"....................................................###.................###.............................................................",
"........................................................................................................................................",
"........................................................................................................................................",
"........................................................................................................................................",
"...............................#..................................................#.....#.....#.........................................",
"...............................#.................................................#......#......#........................................",
".#.###....###.#.#.###...###...#####.##..##.###.######.######.######.###.#####....#......#......#........................................",
"..#...#..#...#...#.....#...#...#.....#...#..#...#..#...#...#.#...#...#..#..#.....#......#......#.....#..#...............................",
"..#...#..#...#...#......###....#.....#...#..#...#..#.#.#....#....#...#....#.....#.......#.......#...#.#.#...............................",
"..#...#..#...#...#.........#...#.....#...#...#.#...#.#.#...#.#....#.#....#.......#......#......#....#..#................................",
"..#...#..#...#...#.....#...#...#...#.#...#...###....#.#...#...#...###...#...#....#......#......#........................................",
"..####....####..####....###.....###...###.#...#.....#.#..##...##...#....#####....#......#......#........................................",
"..#..........#.....................................................#.............#......#......#........................................",
"..#..........#.....................................................#..............#.....#.....#.........................................",
".###........###..................................................##.....................................................................",
"........................................................................................................................................",
"........................................................................................................................................",
"........................................................................................................................................",
"........................................................................................................................................",
"........................................................................................................................................",
"........................................................................................................................................",
"........................................................................................................................................",
"........................................................................................................................................",
"........................................................................................................................................",
"........................................................................................................................................",
"........................................................................................................................................",
"........................................................................................................................................"};
